<svg width="50" height="40" viewBox="0 0 50 40" fill="none" xmlns="http://www.w3.org/2000/svg">
<path d="M17 22C17 20.0302 17.388 18.0796 18.1418 16.2597C18.8956 14.4399 20.0005 12.7863 21.3934 11.3934C22.7863 10.0005 24.4399 8.89563 26.2597 8.1418C28.0796 7.38798 30.0302 7 32 7C33.9698 7 35.9204 7.38798 37.7403 8.14181C39.5601 8.89563 41.2137 10.0005 42.6066 11.3934C43.9995 12.7863 45.1044 14.4399 45.8582 16.2597C46.612 18.0796 47 20.0302 47 22" stroke="white" stroke-width="2.5" stroke-linecap="round"/>
<path d="M32 19C32 20.9698 31.612 22.9204 30.8582 24.7403C30.1044 26.5601 28.9995 28.2137 27.6066 29.6066C26.2137 30.9995 24.5601 32.1044 22.7402 32.8582C20.9204 33.612 18.9698 34 17 34C15.0302 34 13.0796 33.612 11.2597 32.8582C9.43986 32.1044 7.78627 30.9995 6.3934 29.6066C5.00052 28.2137 3.89563 26.5601 3.14181 24.7403C2.38799 22.9204 2 20.9698 2 19" stroke="white" stroke-width="2.5" stroke-linecap="round"/>
<path d="M11 14L6 14" stroke="white" stroke-width="2.5" stroke-linecap="round"/>
</svg>
