<svg width="23" height="19" viewBox="0 0 23 19" fill="none" xmlns="http://www.w3.org/2000/svg">
<path d="M1.53577 17.4025L1.53577 16.4871C1.53577 12.9483 4.40453 10.0796 7.94332 10.0796C11.4821 10.0796 14.3509 12.9483 14.3509 16.4871V17.4025" stroke="white" stroke-width="2" stroke-linecap="round"/>
<path d="M12.52 11.9103C12.52 9.38263 14.5692 7.3335 17.0968 7.3335C19.6245 7.3335 21.6737 9.38263 21.6737 11.9103V12.368" stroke="white" stroke-width="2" stroke-linecap="round"/>
<path d="M7.94332 10.0795C9.96545 10.0795 11.6048 8.44018 11.6048 6.41805C11.6048 4.39588 9.96545 2.75659 7.94332 2.75659C5.92115 2.75659 4.28186 4.39588 4.28186 6.41805C4.28186 8.44018 5.92115 10.0795 7.94332 10.0795Z" stroke="white" stroke-width="2" stroke-linecap="round" stroke-linejoin="round"/>
<path d="M17.0969 7.33349C18.6136 7.33349 19.843 6.10402 19.843 4.5874C19.843 3.07078 18.6136 1.84131 17.0969 1.84131C15.5803 1.84131 14.3508 3.07078 14.3508 4.5874C14.3508 6.10402 15.5803 7.33349 17.0969 7.33349Z" stroke="white" stroke-width="2" stroke-linecap="round" stroke-linejoin="round"/>
</svg>
