<svg width="24" height="24" viewBox="0 0 24 24" fill="none" xmlns="http://www.w3.org/2000/svg">
<path d="M2 14.4998V10.4998C2 9.94756 2.44772 9.49984 2.99999 9.49984H5.69719C5.89462 9.49984 6.08763 9.4414 6.25189 9.33189L10.4452 6.53633C11.1098 6.09329 11.9999 6.56968 11.9999 7.36838V17.6313C11.9999 18.43 11.1098 18.9064 10.4452 18.4633L6.25189 15.6677C6.08763 15.5582 5.89462 15.4998 5.69719 15.4998H2.99999C2.44772 15.4998 2 15.0521 2 14.4998Z" stroke="white" stroke-width="1.5"/>
<path d="M16.5 8C16.5 8 18 9.49999 18 12C18 14.5 16.5 15.9999 16.5 15.9999" stroke="white" stroke-width="1.5" stroke-linecap="round" stroke-linejoin="round"/>
<path d="M19.4998 5C19.4998 5 21.9997 7.49998 21.9997 12C21.9997 16.4999 19.4998 18.9999 19.4998 18.9999" stroke="white" stroke-width="1.5" stroke-linecap="round" stroke-linejoin="round"/>
</svg>
