<svg width="50" height="40" viewBox="0 0 50 40" fill="none" xmlns="http://www.w3.org/2000/svg">
<path d="M38.8582 24.7403C39.4843 23.2288 39.858 21.6272 39.9667 19.9993C40.0035 19.4482 39.5523 19 39 19L25 19L11 19C10.4477 19 9.99653 19.4482 10.0333 19.9993C10.142 21.6272 10.5157 23.2288 11.1418 24.7403C11.8956 26.5601 13.0005 28.2137 14.3934 29.6066C15.7863 30.9995 17.4399 32.1044 19.2597 32.8582C21.0796 33.612 23.0302 34 25 34C26.9698 34 28.9204 33.612 30.7402 32.8582C32.5601 32.1044 34.2137 30.9995 35.6066 29.6066C36.9995 28.2137 38.1044 26.5601 38.8582 24.7403Z" stroke="white" stroke-width="2.5"/>
<circle cx="24.5" cy="11.5" r="2.5" transform="rotate(-180 24.5 11.5)" fill="white" stroke="white" stroke-width="2.5"/>
<path d="M27 26L22 26" stroke="white" stroke-width="2.5" stroke-linecap="round"/>
</svg>
