<svg width="24" height="24" viewBox="0 0 24 24" fill="none" xmlns="http://www.w3.org/2000/svg">
<path d="M16.803 14.4098L18.9247 12.3265M18.9247 12.3265L21.0454 10.2432M18.9247 12.3265L16.803 10.2432M18.9247 12.3265L21.0454 14.4098" stroke="white" stroke-width="1.5" stroke-linecap="round" stroke-linejoin="round"/>
<path d="M1.95459 14.4095V10.2428C1.95459 9.66756 2.42944 9.20119 3.01519 9.20119H5.87586C6.08525 9.20119 6.28996 9.14032 6.46417 9.02624L10.9117 6.1142C11.6165 5.6527 12.5606 6.14894 12.5606 6.98091V17.6714C12.5606 18.5034 11.6165 18.9997 10.9117 18.5381L6.46417 15.626C6.28996 15.512 6.08525 15.4511 5.87586 15.4511H3.01519C2.42944 15.4511 1.95459 14.9848 1.95459 14.4095Z" stroke="white" stroke-width="1.5"/>
</svg>
