<svg width="20" height="22" viewBox="0 0 20 22" fill="none" xmlns="http://www.w3.org/2000/svg">
<path d="M15.5001 21L15.5001 15ZM15.5001 5L15.5001 1ZM12.0001 9C12.0001 9.45963 12.0906 9.91475 12.2665 10.3394C12.4424 10.764 12.7002 11.1499 13.0252 11.4749C13.3502 11.7999 13.736 12.0577 14.1607 12.2336C14.5853 12.4095 15.0404 12.5 15.5001 12.5C15.9597 12.5 16.4148 12.4095 16.8395 12.2336C17.2641 12.0577 17.6499 11.7999 17.9749 11.4749C18.2999 11.1499 18.5577 10.764 18.7336 10.3394C18.9095 9.91475 19.0001 9.45963 19.0001 9C19.0001 8.07174 18.6313 7.1815 17.9749 6.52513C17.3186 5.86875 16.4283 5.5 15.5001 5.5C14.5718 5.5 13.6816 5.86875 13.0252 6.52513C12.3688 7.1815 12.0001 8.07174 12.0001 9ZM4.50006 21L4.50006 17ZM4.50006 7L4.50006 0.999999ZM1.00006 13C1.00006 13.9283 1.36881 14.8185 2.02519 15.4749C2.68156 16.1313 3.5718 16.5 4.50006 16.5C5.42832 16.5 6.31856 16.1313 6.97493 15.4749C7.63131 14.8185 8.00006 13.9283 8.00006 13C8.00006 12.0717 7.63131 11.1815 6.97493 10.5251C6.31856 9.86875 5.42832 9.5 4.50006 9.5C3.5718 9.5 2.68156 9.86875 2.02519 10.5251C1.36881 11.1815 1.00006 12.0717 1.00006 13Z" fill="#2B2037"/>
<path d="M15.5001 21L15.5001 15M15.5001 5L15.5001 1M4.50006 21L4.50006 17M4.50006 7L4.50006 0.999999M12.0001 9C12.0001 9.45963 12.0906 9.91475 12.2665 10.3394C12.4424 10.764 12.7002 11.1499 13.0252 11.4749C13.3502 11.7999 13.736 12.0577 14.1607 12.2336C14.5853 12.4095 15.0404 12.5 15.5001 12.5C15.9597 12.5 16.4148 12.4095 16.8395 12.2336C17.2641 12.0577 17.6499 11.7999 17.9749 11.4749C18.2999 11.1499 18.5577 10.764 18.7336 10.3394C18.9095 9.91475 19.0001 9.45963 19.0001 9C19.0001 8.07174 18.6313 7.1815 17.9749 6.52513C17.3186 5.86875 16.4283 5.5 15.5001 5.5C14.5718 5.5 13.6816 5.86875 13.0252 6.52513C12.3688 7.1815 12.0001 8.07174 12.0001 9ZM1.00006 13C1.00006 13.9283 1.36881 14.8185 2.02519 15.4749C2.68156 16.1313 3.5718 16.5 4.50006 16.5C5.42832 16.5 6.31856 16.1313 6.97493 15.4749C7.63131 14.8185 8.00006 13.9283 8.00006 13C8.00006 12.0717 7.63131 11.1815 6.97493 10.5251C6.31856 9.86875 5.42832 9.5 4.50006 9.5C3.5718 9.5 2.68156 9.86875 2.02519 10.5251C1.36881 11.1815 1.00006 12.0717 1.00006 13Z" stroke="white" stroke-width="1.5" stroke-miterlimit="10" stroke-linecap="round" stroke-linejoin="round"/>
</svg>
