<svg width="24" height="24" viewBox="0 0 24 24" fill="none" xmlns="http://www.w3.org/2000/svg">
<path d="M18.8513 11L18.8513 20.3999C18.8513 20.7313 18.5827 20.9999 18.2513 20.9999L5.45144 20.9999C5.12007 20.9999 4.85144 20.7313 4.85144 20.3999L4.85144 11" stroke="white" stroke-width="1.5" stroke-linecap="round" stroke-linejoin="round"/>
<path d="M9.85132 16.9999L9.85132 11" stroke="white" stroke-width="1.5" stroke-linecap="round" stroke-linejoin="round"/>
<path d="M13.8514 16.9999L13.8514 11" stroke="white" stroke-width="1.5" stroke-linecap="round" stroke-linejoin="round"/>
<path d="M20.8512 6.99997L15.8513 6.99997M15.8513 6.99997L15.8513 3.59999C15.8513 3.26863 15.5827 3 15.2513 3L8.45133 3C8.11997 3 7.85134 3.26863 7.85134 3.59999L7.85134 6.99997M15.8513 6.99997L7.85134 6.99997M2.85138 6.99997L7.85134 6.99997" stroke="white" stroke-width="1.5" stroke-linecap="round" stroke-linejoin="round"/>
</svg>
