<svg width="23" height="18" viewBox="0 0 23 18" fill="none" xmlns="http://www.w3.org/2000/svg">
<path d="M1 16.9999L1 16.0846C1 12.5458 3.86876 9.677 7.40755 9.677C10.9463 9.677 13.8151 12.5458 13.8151 16.0846V16.9999" stroke="#9747FF" stroke-width="2" stroke-linecap="round"/>
<path d="M11.9843 11.5077C11.9843 8.98004 14.0334 6.93091 16.5611 6.93091C19.0888 6.93091 21.1379 8.98004 21.1379 11.5077V11.9654" stroke="#9747FF" stroke-width="2" stroke-linecap="round"/>
<path d="M7.40755 9.67692C9.42968 9.67692 11.069 8.03759 11.069 6.01546C11.069 3.99329 9.42968 2.354 7.40755 2.354C5.38538 2.354 3.74609 3.99329 3.74609 6.01546C3.74609 8.03759 5.38538 9.67692 7.40755 9.67692Z" stroke="#9747FF" stroke-width="2" stroke-linecap="round" stroke-linejoin="round"/>
<path d="M16.5612 6.93091C18.0778 6.93091 19.3072 5.70143 19.3072 4.18481C19.3072 2.66819 18.0778 1.43872 16.5612 1.43872C15.0445 1.43872 13.8151 2.66819 13.8151 4.18481C13.8151 5.70143 15.0445 6.93091 16.5612 6.93091Z" stroke="#9747FF" stroke-width="2" stroke-linecap="round" stroke-linejoin="round"/>
</svg>
