<svg width="215" height="99" viewBox="0 0 215 99" fill="none" xmlns="http://www.w3.org/2000/svg">
<path d="M48.0797 0.61196L48.0797 43.5716L37.738 43.5716V17.8081L28.2431 43.5716H19.8972L10.3417 17.7469L10.3417 43.5716H0L0 0.61196L12.2165 0.61196L24.1306 30.3533L35.9237 0.61196L48.0797 0.61196ZM95.25 35.9833H79.405L76.8649 43.5716L66.0394 43.5716L81.4007 0.61196L93.3752 0.61196L108.737 43.5716L97.7901 43.5716L95.25 35.9833ZM92.589 27.9054L87.3275 12.178L82.1264 27.9054L92.589 27.9054ZM142.078 44C138.973 44 136.191 43.49 133.732 42.4701C131.273 41.4502 129.297 39.9407 127.805 37.9416C126.354 35.9425 125.588 33.5355 125.507 30.7204L136.514 30.7204C136.675 32.3115 137.22 33.5355 138.147 34.3922C139.074 35.2082 140.284 35.6161 141.776 35.6161C143.308 35.6161 144.517 35.2694 145.404 34.5758C146.291 33.8414 146.735 32.8419 146.735 31.5772C146.735 30.5165 146.372 29.6393 145.646 28.9458C144.961 28.2522 144.094 27.681 143.046 27.2323C142.038 26.7835 140.586 26.2735 138.691 25.7024C135.95 24.8456 133.712 23.9889 131.978 23.1321C130.245 22.2754 128.753 21.0107 127.503 19.338C126.253 17.6653 125.628 15.4826 125.628 12.79C125.628 8.79184 127.059 5.67084 129.922 3.42698C132.785 1.14233 136.514 0 141.11 0C145.787 0 149.557 1.14233 152.42 3.42698C155.282 5.67084 156.814 8.81224 157.016 12.8512L145.828 12.8512C145.747 11.4641 145.243 10.3829 144.316 9.60779C143.388 8.79184 142.199 8.38387 140.747 8.38387C139.498 8.38387 138.49 8.73064 137.724 9.4242C136.958 10.077 136.575 11.0357 136.575 12.3004C136.575 13.6875 137.22 14.7687 138.51 15.5438C139.8 16.319 141.816 17.1553 144.558 18.0529C147.299 18.9912 149.517 19.8887 151.21 20.7455C152.944 21.6022 154.436 22.8465 155.685 24.4784C156.935 26.1103 157.56 28.2114 157.56 30.7816C157.56 33.2295 156.935 35.4529 155.685 37.452C154.476 39.4511 152.702 41.0422 150.363 42.2253C148.025 43.4084 145.263 44 142.078 44ZM214 0.61196V43.5716H203.658V25.886L187.571 25.886V43.5716H177.23V0.61196L187.571 0.61196V17.4409L203.658 17.4409V0.61196L214 0.61196Z" fill="white"/>
<path d="M21.6233 98.5716L12.8049 82.3547H10.3285L10.3285 98.5716H0L0 55.612L17.3349 55.612C20.677 55.612 23.5158 56.2035 25.8512 57.3867C28.227 58.5698 29.9987 60.2017 31.1664 62.2823C32.3342 64.3222 32.918 66.6069 32.918 69.1363C32.918 71.9921 32.1127 74.542 30.502 76.7858C28.9316 79.0297 26.5962 80.6208 23.4957 81.5591L33.2804 98.5716H21.6233ZM10.3285 74.9499H16.7309C18.6234 74.9499 20.0327 74.4808 20.9589 73.5424C21.9253 72.6041 22.4085 71.2782 22.4085 69.5647C22.4085 67.9328 21.9253 66.6477 20.9589 65.7093C20.0327 64.771 18.6234 64.3018 16.7309 64.3018H10.3285L10.3285 74.9499ZM70.3262 99C66.3398 99 62.6755 98.0617 59.3334 96.185C56.0316 94.3083 53.3941 91.6973 51.421 88.3519C49.4882 84.9657 48.5218 81.1715 48.5218 76.9694C48.5218 72.7673 49.4882 68.9935 51.421 65.6481C53.3941 62.3027 56.0316 59.6917 59.3334 57.815C62.6755 55.9383 66.3398 55 70.3262 55C74.3126 55 77.9567 55.9383 81.2586 57.815C84.6007 59.6917 87.218 62.3027 89.1106 65.6481C91.0434 68.9935 92.0098 72.7673 92.0098 76.9694C92.0098 81.1715 91.0434 84.9657 89.1106 88.3519C87.1778 91.6973 84.5604 94.3083 81.2586 96.185C77.9567 98.0617 74.3126 99 70.3262 99ZM70.3262 89.4534C73.7086 89.4534 76.4065 88.3111 78.4198 86.0264C80.4734 83.7418 81.5002 80.7228 81.5002 76.9694C81.5002 73.1752 80.4734 70.1562 78.4198 67.9124C76.4065 65.6277 73.7086 64.4854 70.3262 64.4854C66.9035 64.4854 64.1654 65.6073 62.1118 67.8512C60.0985 70.095 59.0918 73.1344 59.0918 76.9694C59.0918 80.7636 60.0985 83.803 62.1118 86.0876C64.1654 88.3315 66.9035 89.4534 70.3262 89.4534ZM128.681 99C124.694 99 121.03 98.0617 117.688 96.185C114.386 94.3083 111.748 91.6973 109.775 88.3519C107.843 84.9657 106.876 81.1715 106.876 76.9694C106.876 72.7673 107.843 68.9935 109.775 65.6481C111.748 62.3027 114.386 59.6917 117.688 57.815C121.03 55.9383 124.694 55 128.681 55C132.667 55 136.311 55.9383 139.613 57.815C142.955 59.6917 145.572 62.3027 147.465 65.6481C149.398 68.9935 150.364 72.7673 150.364 76.9694C150.364 81.1715 149.398 84.9657 147.465 88.3519C145.532 91.6973 142.915 94.3083 139.613 96.185C136.311 98.0617 132.667 99 128.681 99ZM128.681 89.4534C132.063 89.4534 134.761 88.3111 136.774 86.0264C138.828 83.7418 139.855 80.7228 139.855 76.9694C139.855 73.1752 138.828 70.1562 136.774 67.9124C134.761 65.6277 132.063 64.4854 128.681 64.4854C125.258 64.4854 122.52 65.6073 120.466 67.8512C118.453 70.095 117.446 73.1344 117.446 76.9694C117.446 80.7636 118.453 83.803 120.466 86.0876C122.52 88.3315 125.258 89.4534 128.681 89.4534ZM215 55.612V98.5716H204.672V72.8081L195.189 98.5716H186.854L177.31 72.7469V98.5716H166.982V55.612H179.183L191.082 85.3533L202.86 55.612H215Z" fill="white"/>
</svg>
