<svg width="56" height="28" viewBox="0 0 56 28" fill="none" xmlns="http://www.w3.org/2000/svg">
<path d="M12.5816 0.166898L12.5816 11.8832L9.87537 11.8832L9.87537 4.85675L7.39071 11.8832H5.20674L2.70625 4.84006L2.70625 11.8832H0L0 0.166898L3.19685 0.166898L6.31455 8.27816L9.40059 0.166898L12.5816 0.166898ZM24.9252 9.81363H20.7789L20.1142 11.8832L17.2813 11.8832L21.3011 0.166898L24.4346 0.166898L28.4544 11.8832L25.5899 11.8832L24.9252 9.81363ZM24.2289 7.61057L22.8521 3.32128L21.491 7.61057H24.2289ZM37.1793 12C36.3669 12 35.6389 11.8609 34.9953 11.5828C34.3517 11.3046 33.8347 10.8929 33.4444 10.3477C33.0646 9.8025 32.8641 9.14604 32.843 8.3783L35.7233 8.3783C35.7655 8.81224 35.9079 9.14604 36.1506 9.37969C36.3933 9.60223 36.7098 9.71349 37.1002 9.71349C37.5011 9.71349 37.8176 9.61892 38.0497 9.42976C38.2818 9.22949 38.3979 8.95689 38.3979 8.61196C38.3979 8.32267 38.3029 8.08345 38.113 7.8943C37.9336 7.70515 37.7068 7.54937 37.4325 7.42698C37.1687 7.30459 36.7889 7.16551 36.293 7.00974C35.5756 6.77608 34.99 6.54242 34.5364 6.30876C34.0827 6.0751 33.6923 5.73018 33.3652 5.27399C33.0382 4.8178 32.8746 4.22253 32.8746 3.48818C32.8746 2.39777 33.2492 1.54659 33.9983 0.934631C34.7474 0.311543 35.7233 0 36.9261 0C38.1499 0 39.1364 0.311543 39.8855 0.934631C40.6346 1.54659 41.0355 2.40334 41.0883 3.50487L38.1605 3.50487C38.1394 3.12656 38.0075 2.83171 37.7648 2.62031C37.5222 2.39777 37.2109 2.28651 36.8311 2.28651C36.504 2.28651 36.2403 2.38108 36.0398 2.57024C35.8394 2.74826 35.7391 3.00974 35.7391 3.35466C35.7391 3.73296 35.9079 4.02782 36.2456 4.23922C36.5832 4.45063 37.1107 4.67872 37.8281 4.9235C38.5456 5.17942 39.1259 5.4242 39.569 5.65786C40.0227 5.89152 40.413 6.23088 40.7401 6.67594C41.0672 7.121 41.2307 7.69402 41.2307 8.39499C41.2307 9.06259 41.0672 9.66899 40.7401 10.2142C40.4236 10.7594 39.9594 11.1933 39.3474 11.516C38.7355 11.8387 38.0128 12 37.1793 12ZM56 0.166898V11.8832H53.2938V7.0598L49.0841 7.0598V11.8832L46.3779 11.8832V0.166898L49.0841 0.166898V4.75661L53.2938 4.75661V0.166898L56 0.166898Z" fill="white"/>
<path d="M5.6321 27.8832L3.33522 23.4604H2.69021L2.69021 27.8832H0L0 16.1669H4.51513C5.38563 16.1669 6.12504 16.3282 6.73335 16.6509C7.35214 16.9736 7.81362 17.4186 8.11777 17.9861C8.42192 18.5424 8.574 19.1655 8.574 19.8554C8.574 20.6342 8.36424 21.3296 7.94472 21.9416C7.53568 22.5535 6.92738 22.9875 6.1198 23.2434L8.66839 27.8832H5.6321ZM2.69021 21.4409H4.35781C4.85075 21.4409 5.21783 21.3129 5.45905 21.057C5.71076 20.8011 5.83662 20.4395 5.83662 19.9722C5.83662 19.5271 5.71076 19.1766 5.45905 18.9207C5.21783 18.6648 4.85075 18.5369 4.35781 18.5369H2.69021L2.69021 21.4409ZM18.3175 28C17.2792 28 16.3248 27.7441 15.4543 27.2323C14.5943 26.7204 13.9073 26.0083 13.3934 25.096C12.89 24.1725 12.6382 23.1377 12.6382 21.9917C12.6382 20.8456 12.89 19.8164 13.3934 18.904C13.9073 17.9917 14.5943 17.2796 15.4543 16.7677C16.3248 16.2559 17.2792 16 18.3175 16C19.3558 16 20.305 16.2559 21.165 16.7677C22.0355 17.2796 22.7173 17.9917 23.2102 18.904C23.7136 19.8164 23.9653 20.8456 23.9653 21.9917C23.9653 23.1377 23.7136 24.1725 23.2102 25.096C22.7068 26.0083 22.025 26.7204 21.165 27.2323C20.305 27.7441 19.3558 28 18.3175 28ZM18.3175 25.3964C19.1985 25.3964 19.9012 25.0848 20.4256 24.4618C20.9605 23.8387 21.228 23.0153 21.228 21.9917C21.228 20.9569 20.9605 20.1335 20.4256 19.5216C19.9012 18.8985 19.1985 18.5869 18.3175 18.5869C17.426 18.5869 16.7129 18.8929 16.178 19.5049C15.6536 20.1168 15.3914 20.9458 15.3914 21.9917C15.3914 23.0264 15.6536 23.8554 16.178 24.4784C16.7129 25.0904 17.426 25.3964 18.3175 25.3964ZM33.5168 28C32.4785 28 31.5241 27.7441 30.6536 27.2323C29.7935 26.7204 29.1066 26.0083 28.5927 25.096C28.0892 24.1725 27.8375 23.1377 27.8375 21.9917C27.8375 20.8456 28.0892 19.8164 28.5927 18.904C29.1066 17.9917 29.7935 17.2796 30.6536 16.7677C31.5241 16.2559 32.4785 16 33.5168 16C34.5551 16 35.5043 16.2559 36.3643 16.7677C37.2348 17.2796 37.9165 17.9917 38.4095 18.904C38.9129 19.8164 39.1646 20.8456 39.1646 21.9917C39.1646 23.1377 38.9129 24.1725 38.4095 25.096C37.906 26.0083 37.2243 26.7204 36.3643 27.2323C35.5043 27.7441 34.5551 28 33.5168 28ZM33.5168 25.3964C34.3978 25.3964 35.1005 25.0848 35.6249 24.4618C36.1598 23.8387 36.4272 23.0153 36.4272 21.9917C36.4272 20.9569 36.1598 20.1335 35.6249 19.5216C35.1005 18.8985 34.3978 18.5869 33.5168 18.5869C32.6253 18.5869 31.9121 18.8929 31.3772 19.5049C30.8528 20.1168 30.5906 20.9458 30.5906 21.9917C30.5906 23.0264 30.8528 23.8554 31.3772 24.4784C31.9121 25.0904 32.6253 25.3964 33.5168 25.3964ZM56 16.1669V27.8832H53.3098V20.8567L50.8399 27.8832L48.6689 27.8832L46.1832 20.8401V27.8832H43.493V16.1669H46.6709L49.7701 24.2782L52.8379 16.1669H56Z" fill="white"/>
</svg>
